<svg width="67" height="68" viewBox="0 0 67 68" fill="none" xmlns="http://www.w3.org/2000/svg">
<path d="M66 34C66 52.2394 51.4353 67 33.5 67C15.5647 67 1 52.2394 1 34C1 15.7606 15.5647 1 33.5 1C51.4353 1 66 15.7606 66 34Z" fill="#E9FFFC" stroke="#03DAC5" stroke-width="2"/>
<path fill-rule="evenodd" clip-rule="evenodd" d="M34 43C33.744 43 33.488 42.902 33.293 42.707L25.293 34.707C24.902 34.316 24.902 33.684 25.293 33.293L33.293 25.293C33.684 24.902 34.316 24.902 34.707 25.293C35.098 25.684 35.098 26.316 34.707 26.707L27.414 34L34.707 41.293C35.098 41.684 35.098 42.316 34.707 42.707C34.512 42.902 34.256 43 34 43Z" fill="#03DAC5"/>
</svg>
