<svg width="302" height="584" viewBox="0 0 302 584" fill="none" xmlns="http://www.w3.org/2000/svg">
<path d="M21.816 365.122L14.8189 369.257L5.60837 351.538L2.25216 349.085C1.57865 348.592 1.02378 347.937 0.632772 347.173C0.241764 346.409 0.0257051 345.556 0.00215604 344.686C-0.021393 343.816 0.148248 342.952 0.497274 342.165C0.846301 341.377 1.36481 340.689 2.01058 340.156C2.60157 339.669 3.2845 339.323 4.01254 339.143C4.74058 338.963 5.49653 338.953 6.22855 339.113C6.96056 339.274 7.65132 339.602 8.25352 340.074C8.85571 340.545 9.35509 341.151 9.71738 341.848L12.6056 347.404L21.816 365.122Z" fill="#FFB8B8"/>
<path d="M135.027 146.267H108.095V174.982H135.027V146.267Z" fill="#E6E6E6"/>
<path d="M135.775 211.673H108.843V240.389H135.775V211.673Z" fill="#E6E6E6"/>
<path d="M136.523 277.08H109.591V305.795H136.523V277.08Z" fill="#E6E6E6"/>
<path d="M136.523 277.08H109.591V305.795H136.523V277.08Z" fill="#E6E6E6"/>
<path d="M192.282 535.356L184.919 536.278C179.103 540.016 172.277 541.424 164.717 541.137C163.662 541.103 162.633 540.776 161.733 540.188C160.833 539.6 160.092 538.771 159.585 537.784C159.145 536.918 158.898 535.955 158.864 534.971C158.83 533.986 159.01 533.007 159.389 532.108C159.768 531.21 160.336 530.417 161.049 529.791C161.763 529.165 162.602 528.723 163.502 528.5L169.097 527.11L182.597 513.033L190.741 497.318L202.571 498.764L205.034 518.726C205.346 522.72 204.191 526.687 201.812 529.789C199.432 532.892 196.016 534.888 192.282 535.356Z" fill="#FFB8B8"/>
<path d="M77.6081 525.257L70.3916 527.067C65.0132 531.488 58.382 533.715 50.8404 534.349C49.7884 534.444 48.7313 534.244 47.7742 533.769C46.817 533.294 45.9928 532.561 45.3834 531.641C44.8536 530.834 44.5056 529.908 44.3665 528.934C44.2274 527.96 44.301 526.965 44.5816 526.027C44.8621 525.088 45.3421 524.231 45.9841 523.523C46.626 522.814 47.4126 522.273 48.2827 521.942L53.6924 519.882L65.6001 504.256L72.0119 487.654H83.9195L88.4994 507.186C89.2366 511.116 88.5127 515.198 86.4806 518.569C84.4485 521.941 81.2672 524.339 77.6081 525.257Z" fill="#FFB8B8"/>
<path d="M71.692 488.758L85.1578 490.967L106.392 376.661L143.164 309.845L187.705 504.22L204.278 507.533C202.42 398.073 211.491 260.268 190.813 243.581L100.695 254.625L61.3337 367.274L71.692 488.758Z" fill="#2F2E41"/>
<path d="M136.949 73.5031C154.112 73.5031 168.024 58.6694 168.024 40.3711C168.024 22.0727 154.112 7.23901 136.949 7.23901C119.787 7.23901 105.875 22.0727 105.875 40.3711C105.875 58.6694 119.787 73.5031 136.949 73.5031Z" fill="#FFB8B8"/>
<path d="M180.454 91.1737L143.164 97.8001L133.842 62.4588L160.773 53.6242L180.454 91.1737Z" fill="#FFB8B8"/>
<path d="M195.281 247.567L97.2234 257.369C105.118 228.059 112.298 198.731 106.364 169.487L106.36 169.467L106.355 169.447C102.593 156.412 102.548 146.087 105.867 137.511C109.186 128.936 115.901 122.031 125.818 115.896L125.954 115.811L126.016 115.664L139.37 83.904L175.008 79.5613C184.433 95.8632 188.28 115.147 185.886 134.139L185.886 134.14C180.747 175.694 182.086 214.331 195.281 247.567Z" fill="white" stroke="#E3EAEA"/>
<path d="M136.25 1.24029C125.879 3.76655 114.075 7.34602 113.413 10.673C102.745 13.5393 94.6924 20.4049 93.0482 30.8718C92.9108 31.7764 92.9612 32.7022 93.1957 33.5839C93.4303 34.4655 93.8432 35.2817 94.4056 35.9748C94.9679 36.6678 95.6659 37.221 96.4505 37.5954C97.2351 37.9697 98.0871 38.1561 98.9465 38.1413C104.748 38.0616 113.458 37.4692 119.209 34.9081C135.916 46.3855 138.72 76.2372 131.424 96.5567L142.905 95.4346L154.783 58.361L157.817 93.9773L184.017 90.2838L180.643 44.8667C179.605 34.1622 176.189 23.8759 170.676 14.8614C170.103 13.9562 169.477 13.091 168.801 12.2711C164.815 7.47003 159.684 3.90936 153.953 1.96719C148.222 0.025007 142.104 -0.226178 136.25 1.24029Z" fill="#2F2E41"/>
<path d="M34 537.163H40L61 440.139L72 538.229H79L88.5 411.884L40 411.351L34 537.163Z" fill="#007368"/>
<path d="M54.5 308.996C64.7173 308.996 73 300.165 73 289.271C73 278.378 64.7173 269.547 54.5 269.547C44.2827 269.547 36 278.378 36 289.271C36 300.165 44.2827 308.996 54.5 308.996Z" fill="#FFB8B8"/>
<path d="M47 322.857H66V299.4H47V322.857Z" fill="#FFB8B8"/>
<path d="M38 414.55C54.8176 425.615 72.5983 424.533 91 415.616L87 316.459L66 315.393L44 318.592L33 328.188L38 414.55Z" fill="#03DAC5"/>
<path d="M18 379.365L40 361.24L33 328.188L20 353.777L16 349.512L4 359.108L18 379.365Z" fill="#03DAC5"/>
<path d="M115.656 318.162L108.659 322.297L99.4482 304.579L96.092 302.125C95.4185 301.632 94.8636 300.977 94.4726 300.213C94.0816 299.449 93.8655 298.596 93.842 297.726C93.8185 296.856 93.9881 295.992 94.3371 295.205C94.6861 294.418 95.2047 293.729 95.8504 293.196C96.4414 292.709 97.1243 292.363 97.8524 292.183C98.5804 292.003 99.3364 291.993 100.068 292.154C100.8 292.314 101.491 292.642 102.093 293.114C102.696 293.585 103.195 294.191 103.557 294.888L106.445 300.444L115.656 318.162Z" fill="#FFB8B8"/>
<path d="M76.5 347.912L103.051 332.884L117 324.989L119 312.195L110 302.599L99 310.062L100 318.592L87 316.46L76.5 347.912Z" fill="#03DAC5"/>
<path d="M58.5 305.264C70.6503 305.264 80.5 294.762 80.5 281.808C80.5 268.853 70.6503 258.352 58.5 258.352C46.3497 258.352 36.5 268.853 36.5 281.808C36.5 294.762 46.3497 305.264 58.5 305.264Z" fill="#2F2E41"/>
<path d="M70.5 265.815C76.0228 265.815 80.5 261.041 80.5 255.153C80.5 249.264 76.0228 244.491 70.5 244.491C64.9772 244.491 60.5 249.264 60.5 255.153C60.5 261.041 64.9772 265.815 70.5 265.815Z" fill="#2F2E41"/>
<path d="M70.015 264.067C71.9975 265.17 74.2697 265.533 76.4683 265.097C78.667 264.662 80.6651 263.453 82.1433 261.663C83.6216 259.874 84.4945 257.608 84.6225 255.228C84.7505 252.847 84.1262 250.49 82.8495 248.532C84.0057 249.46 84.9592 250.644 85.6443 252.003C86.3293 253.361 86.7294 254.863 86.817 256.403C86.9046 257.942 86.6775 259.484 86.1515 260.921C85.6255 262.359 84.8131 263.657 83.7704 264.726C82.7278 265.796 81.4797 266.611 80.1125 267.116C78.7453 267.621 77.2916 267.804 75.8518 267.651C74.412 267.498 73.0204 267.014 71.7733 266.232C70.5262 265.45 69.4533 264.388 68.6287 263.12C69.0656 263.476 69.5293 263.792 70.015 264.067Z" fill="#2F2E41"/>
<path d="M131.77 281.131L132.457 306.771C132.552 310.305 131.387 313.746 129.197 316.401C127.007 319.056 123.955 320.728 120.656 321.08C118.542 321.306 116.409 320.98 114.44 320.132C112.47 319.283 110.724 317.938 109.35 316.21C107.977 314.483 107.017 312.426 106.554 310.216C106.092 308.006 106.139 305.709 106.693 303.522L112.089 282.235L127.627 191.674L126.591 138.663L159.738 137.558L153.523 197.196L131.77 281.131Z" fill="#FFB8B8"/>
<path d="M161.274 142.33C149.578 137.787 136.751 137.787 125.055 142.33L127.091 98.9277L127.091 98.916V98.9043C127.091 94.3404 128.792 89.9694 131.81 86.7515C134.827 83.5346 138.912 81.7339 143.164 81.7339C147.417 81.7339 151.502 83.5346 154.519 86.7515C157.537 89.9694 159.238 94.3404 159.238 98.9043V98.916L159.238 98.9277L161.274 142.33Z" fill="white" stroke="#E1E9E8"/>
<path d="M230.577 575.322H218.317L212.485 524.904H230.579L230.577 575.322Z" fill="#FFB8B8"/>
<path d="M291.577 575.322H279.317L273.485 524.904H291.579L291.577 575.322Z" fill="#FFB8B8"/>
<path d="M169.076 395.013C168.194 393.628 167.608 392.053 167.358 390.4C167.109 388.747 167.202 387.055 167.633 385.445C168.063 383.834 168.819 382.344 169.847 381.079C170.876 379.813 172.152 378.804 173.587 378.122L215.262 255.651L235.769 267.583L188.185 384.62C189.1 387.265 189.074 390.176 188.111 392.802C187.148 395.427 185.315 397.585 182.96 398.866C180.605 400.147 177.89 400.463 175.331 399.753C172.772 399.042 170.547 397.356 169.076 395.013Z" fill="#FFB8B8"/>
<path d="M285.315 418.026C283.952 417.193 282.778 416.052 281.874 414.683C280.97 413.314 280.358 411.75 280.082 410.101C279.807 408.453 279.873 406.76 280.277 405.142C280.681 403.524 281.413 402.02 282.422 400.736L269.511 271.183L292.849 272.32L298.214 399.752C300.125 401.701 301.299 404.33 301.513 407.14C301.727 409.95 300.967 412.746 299.377 414.998C297.787 417.251 295.478 418.803 292.886 419.361C290.294 419.919 287.6 419.444 285.315 418.026V418.026Z" fill="#FFB8B8"/>
<path d="M248.084 232.966C261.649 232.966 272.645 221.242 272.645 206.779C272.645 192.316 261.649 180.592 248.084 180.592C234.52 180.592 223.523 192.316 223.523 206.779C223.523 221.242 234.52 232.966 248.084 232.966Z" fill="#FFB8B8"/>
<path d="M285.158 388.562H211.111L211.2 387.947C211.333 387.029 224.397 295.786 214.762 265.936C213.795 263.002 213.88 259.791 215.001 256.921C216.121 254.05 218.198 251.723 220.831 250.387H220.832C234.603 243.472 261.039 234.958 283.352 255.621C286.635 258.712 289.199 262.575 290.841 266.904C292.482 271.233 293.157 275.911 292.811 280.566L285.158 388.562Z" fill="#03DAC5"/>
<path d="M225.333 309.27L191.996 302.06L207.622 262.578C208.557 258.754 210.877 255.482 214.072 253.479C217.267 251.475 221.077 250.905 224.666 251.893C228.254 252.881 231.329 255.346 233.216 258.748C235.102 262.15 235.646 266.21 234.728 270.039L225.333 309.27Z" fill="#03DAC5"/>
<path d="M268.029 322.659L266.025 273.677C264.505 264.469 269.449 255.764 277.052 254.341C284.657 252.924 292.084 259.31 293.61 268.586L301.143 314.355L268.029 322.659Z" fill="#03DAC5"/>
<path d="M282.694 382.698C294.609 431.078 295.909 492.59 292.694 559.687L276.694 557.554L247.694 429.61L231.694 559.687L213.694 558.621C208.317 488.22 203.081 427.782 211.694 388.029L282.694 382.698Z" fill="#007368"/>
<path d="M264.267 227.017C259.685 232.221 251.176 229.427 250.579 222.318C250.532 221.766 250.536 221.211 250.589 220.659C250.898 217.51 252.604 214.651 252.195 211.326C252.103 210.499 251.813 209.71 251.355 209.035C247.704 203.822 239.133 211.367 235.687 206.648C233.574 203.754 236.058 199.198 234.436 195.964C232.296 191.695 225.957 193.801 221.982 191.463C217.56 188.862 217.824 181.627 220.735 177.226C224.286 171.86 230.511 168.996 236.659 168.583C242.806 168.17 248.912 169.942 254.651 172.327C261.172 175.037 267.639 178.781 271.652 184.895C276.532 192.33 277.002 202.325 274.561 211.019C273.076 216.307 268.009 222.767 264.267 227.017Z" fill="#2F2E41"/>
<path d="M208.887 566.451H232.531V582.324H194C194 578.114 195.568 574.077 198.36 571.1C201.152 568.124 204.939 566.451 208.887 566.451Z" fill="#2F2E41"/>
<path d="M269.887 567.518H293.531V583.39H255C255 579.18 256.568 575.143 259.36 572.166C262.152 569.19 265.939 567.518 269.887 567.518Z" fill="#2F2E41"/>
<path d="M41.5543 540.851C41.6107 541.391 41.5601 541.939 41.4059 542.457C41.2517 542.975 40.9972 543.454 40.659 543.861C40.3208 544.268 39.9062 544.595 39.4422 544.821C38.9781 545.046 38.4747 545.166 37.9647 545.172L26.312 545.299C25.6844 545.253 25.0968 544.954 24.6677 544.463C24.2386 543.973 24 543.327 24 542.656C24 542.127 24.1488 541.609 24.4272 541.171C24.7057 540.732 25.101 540.393 25.5621 540.196L29 538.73L34 531.267H38C39.9641 534.059 41.1907 537.361 41.5522 540.83L41.5543 540.851Z" fill="#FFB8B8"/>
<path d="M71.0223 548.314C70.966 548.855 71.0166 549.402 71.1708 549.92C71.325 550.439 71.5795 550.917 71.9177 551.324C72.2559 551.731 72.6705 552.058 73.1346 552.284C73.5986 552.51 74.102 552.629 74.612 552.635L86.2647 552.763C86.8922 552.716 87.4798 552.417 87.9089 551.927C88.338 551.436 88.5767 550.79 88.5767 550.12C88.5767 549.59 88.4279 549.073 88.1495 548.634C87.8711 548.196 87.4758 547.856 87.0147 547.66L83.5767 546.194L78.5767 538.73H74.5767C72.6126 541.522 71.3861 544.824 71.0246 548.293L71.0224 548.314H71.0223Z" fill="#FFB8B8"/>
</svg>
