<svg width="264" height="521" viewBox="0 0 264 521" fill="none" xmlns="http://www.w3.org/2000/svg">
<path d="M264 123.809H261.109V45.388C261.109 33.3504 256.28 21.8058 247.684 13.2939C239.088 4.78196 227.429 1.501e-05 215.272 2.88058e-10H47.4821C41.4627 -2.12343e-05 35.5022 1.17395 29.941 3.45489C24.3798 5.73583 19.3267 9.07907 15.0704 13.2937C10.814 17.5084 7.43761 22.5119 5.13406 28.0186C2.83051 33.5253 1.64488 39.4274 1.64486 45.3878V475.612C1.64485 481.572 2.83044 487.474 5.13396 492.981C7.43748 498.488 10.8138 503.491 15.0702 507.706C19.3266 511.921 24.3796 515.264 29.9408 517.545C35.502 519.826 41.4625 521 47.4819 521H215.272C221.291 521 227.252 519.826 232.813 517.545C238.374 515.264 243.427 511.921 247.684 507.706C251.94 503.492 255.316 498.488 257.62 492.981C259.923 487.475 261.109 481.573 261.109 475.612V179.63H264V123.809Z" fill="#03DAC5"/>
<path d="M225.879 12.1351H201.488C202.61 14.581 203.038 17.2348 202.735 19.8626C202.432 22.4904 201.407 25.0116 199.75 27.2041C198.093 29.3966 195.856 31.193 193.235 32.4352C190.614 33.6775 187.69 34.3273 184.72 34.3275H77.6707C74.7007 34.3273 71.7764 33.6775 69.1553 32.4352C66.5342 31.193 64.2968 29.3965 62.6402 27.2041C60.9835 25.0116 59.9586 22.4904 59.6555 19.8626C59.3524 17.2348 59.7806 14.5811 60.9023 12.1351H38.1209C28.0106 12.1351 18.3144 15.7073 11.1654 22.0658C4.01633 28.4244 2.17041e-05 37.0485 0 46.0409V475.768C-1.19409e-06 480.221 0.986028 484.63 2.90178 488.743C4.81753 492.857 7.62547 496.595 11.1653 499.743C14.7052 502.892 18.9076 505.389 23.5326 507.093C28.1576 508.797 33.1147 509.674 38.1208 509.674H225.879C235.989 509.674 245.686 506.102 252.835 499.743C259.984 493.385 264 484.761 264 475.768V46.0409C264 41.5884 263.014 37.1794 261.098 33.0657C259.182 28.9521 256.374 25.2143 252.835 22.0659C249.295 18.9174 245.092 16.4199 240.467 14.716C235.842 13.0121 230.885 12.1351 225.879 12.1351Z" fill="url(#paint0_linear)"/>
<path d="M17.271 401.267H102.804V484.595H17.271V401.267Z" fill="url(#paint1_linear)"/>
<path d="M17.271 386.705C17.271 384.024 19.4443 381.851 22.1251 381.851H97.9497C100.631 381.851 102.804 384.024 102.804 386.705C102.804 389.386 100.631 391.559 97.9497 391.559H22.1251C19.4443 391.559 17.271 389.386 17.271 386.705Z" fill="#E8FFFC"/>
<path d="M17.271 62.2935C17.271 59.6127 19.4443 57.4395 22.1251 57.4395H79.8562C82.5371 57.4395 84.7103 59.6127 84.7103 62.2935C84.7103 64.9743 82.5371 67.1475 79.8562 67.1475H22.1251C19.4443 67.1475 17.271 64.9743 17.271 62.2935Z" fill="#E8FFFC"/>
<path d="M17.271 242.702C17.271 240.021 19.4443 237.848 22.1251 237.848H97.9497C100.631 237.848 102.804 240.021 102.804 242.702C102.804 245.383 100.631 247.556 97.9497 247.556H22.1251C19.4443 247.556 17.271 245.383 17.271 242.702Z" fill="#E8FFFC"/>
<path d="M17.271 82.0466C17.271 78.7329 19.9573 76.0466 23.271 76.0466H235.794C239.108 76.0466 241.794 78.7329 241.794 82.0466V93.5078C241.794 96.8215 239.108 99.5078 235.794 99.5078H23.271C19.9573 99.5078 17.271 96.8215 17.271 93.5078V82.0466Z" fill="url(#paint2_linear)"/>
<path d="M17.271 260.028C17.271 256.714 19.9573 254.028 23.271 254.028H235.794C239.108 254.028 241.794 256.714 241.794 260.028V363.716C241.794 367.03 239.108 369.716 235.794 369.716H23.271C19.9573 369.716 17.271 367.03 17.271 363.716V260.028Z" fill="url(#paint3_linear)"/>
<path d="M13.9813 128.969C13.9813 125.655 16.6676 122.969 19.9813 122.969H232.505C235.818 122.969 238.505 125.655 238.505 128.969V213.241C238.505 216.554 235.818 219.241 232.505 219.241H19.9813C16.6676 219.241 13.9813 216.554 13.9813 213.241V128.969Z" fill="url(#paint4_linear)"/>
<ellipse cx="101.159" cy="177.981" rx="16.4486" ry="16.1801" fill="#E9FFFC"/>
<ellipse cx="148.86" cy="177.981" rx="16.4486" ry="16.1801" fill="#E9FFFC"/>
<ellipse cx="200.673" cy="177.981" rx="16.4486" ry="16.1801" fill="#E9FFFC"/>
<ellipse cx="49.3458" cy="177.981" rx="16.4486" ry="16.1801" fill="#E9FFFC"/>
<path d="M116.785 401.267H202.318V484.595H116.785V401.267Z" fill="url(#paint5_linear)"/>
<path d="M217.944 401.267H259.065V484.595H217.944V401.267Z" fill="url(#paint6_linear)"/>
<ellipse cx="48.9346" cy="282.748" rx="22.6168" ry="22.2477" fill="#E9FFFC"/>
<path d="M89.6449 352.727C89.6449 348.259 93.2669 344.637 97.7349 344.637H167.088C171.556 344.637 175.178 348.259 175.178 352.727C175.178 357.195 171.556 360.817 167.088 360.817H97.7349C93.2669 360.817 89.6449 357.195 89.6449 352.727Z" fill="#E8FFFC"/>
<defs>
<linearGradient id="paint0_linear" x1="132" y1="12.1351" x2="132" y2="509.674" gradientUnits="userSpaceOnUse">
<stop stop-color="white"/>
<stop offset="1" stop-color="white" stop-opacity="0.91"/>
</linearGradient>
<linearGradient id="paint1_linear" x1="60.0374" y1="401.267" x2="60.0374" y2="484.595" gradientUnits="userSpaceOnUse">
<stop stop-color="#03DAC5" stop-opacity="0.27"/>
<stop offset="1" stop-color="#03DAC5" stop-opacity="0.24"/>
</linearGradient>
<linearGradient id="paint2_linear" x1="129.533" y1="76.0466" x2="129.533" y2="99.5078" gradientUnits="userSpaceOnUse">
<stop stop-color="#03DAC5" stop-opacity="0.27"/>
<stop offset="1" stop-color="#03DAC5" stop-opacity="0.24"/>
</linearGradient>
<linearGradient id="paint3_linear" x1="129.533" y1="254.028" x2="129.533" y2="369.716" gradientUnits="userSpaceOnUse">
<stop stop-color="#03DAC5" stop-opacity="0.27"/>
<stop offset="1" stop-color="#03DAC5" stop-opacity="0.24"/>
</linearGradient>
<linearGradient id="paint4_linear" x1="126.243" y1="122.969" x2="126.243" y2="219.241" gradientUnits="userSpaceOnUse">
<stop stop-color="#03DAC5" stop-opacity="0.27"/>
<stop offset="1" stop-color="#03DAC5" stop-opacity="0.24"/>
</linearGradient>
<linearGradient id="paint5_linear" x1="159.551" y1="401.267" x2="159.551" y2="484.595" gradientUnits="userSpaceOnUse">
<stop stop-color="#03DAC5" stop-opacity="0.27"/>
<stop offset="1" stop-color="#03DAC5" stop-opacity="0.24"/>
</linearGradient>
<linearGradient id="paint6_linear" x1="238.505" y1="401.267" x2="238.505" y2="484.595" gradientUnits="userSpaceOnUse">
<stop stop-color="#03DAC5" stop-opacity="0.27"/>
<stop offset="1" stop-color="#03DAC5" stop-opacity="0.24"/>
</linearGradient>
</defs>
</svg>
